<svg width="20" height="20" viewBox="0 0 20 20" fill="none" xmlns="http://www.w3.org/2000/svg">
<path id="invite-friends-icon" fill-rule="evenodd" clip-rule="evenodd" d="M16.6266 3.52202H19.5178C19.7838 3.52202 19.9996 3.74742 19.9996 4.02516C19.9996 4.30289 19.7838 4.52831 19.5178 4.52831H16.6266V7.54716C16.6266 7.82491 16.4108 8.05031 16.1448 8.05031C15.8788 8.05031 15.6629 7.82491 15.6629 7.54716V4.52831H12.7718C12.5058 4.52831 12.2899 4.30289 12.2899 4.02516C12.2899 3.74742 12.5058 3.52202 12.7718 3.52202H15.6629V0.503143C15.6629 0.225403 15.8788 0 16.1448 0C16.4108 0 16.6266 0.225403 16.6266 0.503143V3.52202ZM3.21802 7.35269C3.40788 7.86063 3.85504 9.01233 4.19354 9.54289L4.23161 9.60352L4.23181 9.60384C4.50674 10.0419 5.01839 10.8571 6.62668 10.8571C8.23439 10.8571 8.74611 10.0423 9.02101 9.60452L9.06004 9.54289C9.39879 9.01257 9.84572 7.86063 10.0356 7.35269C10.3464 7.2083 10.5634 6.88277 10.5634 6.5054V5.65634C10.5634 5.33031 10.4013 5.04301 10.1568 4.87747V4.59546C10.1568 2.55295 8.83695 1.33333 6.62668 1.33333C4.4164 1.33333 3.0966 2.55295 3.0966 4.59546V4.88226C2.85375 5.0498 2.68991 5.3376 2.68991 5.65634V6.5054C2.69016 6.88251 2.90723 7.20804 3.21802 7.35269ZM3.65387 5.72881C3.88419 5.69131 4.06055 5.48277 4.06055 5.2317V4.59521C4.06055 3.11949 4.94814 2.33937 6.62691 2.33937C8.3057 2.33937 9.19328 3.11949 9.19328 4.59521V5.2317C9.19328 5.48277 9.3694 5.69107 9.59996 5.72881V6.43221C9.43059 6.46013 9.28555 6.58113 9.22388 6.75246C9.0598 7.20956 8.56639 8.50163 8.25848 8.98415L8.2151 9.05232C7.99178 9.40805 7.71397 9.85057 6.62668 9.85057C5.53925 9.85057 5.2614 9.40804 5.03813 9.05241L5.03775 9.05182L4.9951 8.98441C4.68768 8.50214 4.19379 7.2093 4.02947 6.7522C3.96779 6.58063 3.823 6.45987 3.65338 6.43195V5.72881H3.65387ZM1.43155 11.8385H11.8216C12.2805 11.8385 12.694 12.0279 12.9566 12.358C13.2103 12.677 13.3062 13.0961 13.2267 13.5381C13.1164 14.1521 12.566 14.72 12.2368 15.0597L12.2362 15.0604L12.1627 15.1366L8.12837 19.3492C7.75736 19.7363 7.26561 19.9643 6.73846 19.9947C6.7187 19.9977 6.69847 19.9995 6.67799 20H6.58669C6.5638 20 6.54114 19.9982 6.51923 19.995C5.99086 19.9658 5.49768 19.7376 5.12546 19.3494L1.01715 15.0604C0.688035 14.7207 0.13704 14.1522 0.0266882 13.5379C-0.0525659 13.0958 0.0435644 12.6767 0.297257 12.3575C0.559632 12.0277 0.973054 11.8385 1.43155 11.8385ZM12.2793 13.3527C12.2244 13.6579 11.7748 14.1218 11.5587 14.3444L7.44679 18.6375C7.23743 18.8561 6.95627 18.9819 6.65511 18.9914L6.65341 18.9915L6.65292 18.9915C6.64685 18.9918 6.64064 18.992 6.63463 18.9924H6.62668L6.62041 18.9927C6.61319 18.9922 6.60547 18.9917 6.59825 18.9914C6.29733 18.9819 6.0164 18.8561 5.80704 18.6377L1.77246 14.4252L1.69464 14.3447L1.69396 14.3439C1.47759 14.1208 1.02866 13.6578 0.97403 13.3532C0.955948 13.2523 0.952576 13.1092 1.03908 13.0007C1.11762 12.9016 1.26073 12.845 1.43179 12.845H11.8218C11.9929 12.845 12.1362 12.9019 12.215 13.001C12.301 13.1089 12.2974 13.2518 12.2793 13.3527Z" fill="white"/>
</svg>
